# xmcd
#
# Track frame offsets:
#	150
#	15803
#	32802
#
# Disc length: 656 seconds
#
# Revision: 3
# Processed by: cddbd v1.5.1PL0 Copyright (c) Steve Scherf et al.
# Submitted via: dBpowerAMP V4.0
#
DISCID=13028e03
DTITLE=Kate Earl - Where Are You [CD Single)
DYEAR=1998
DGENRE=Pop
TTITLE0=Silence
TTITLE1=Anything
TTITLE2=Sweet 16
EXTD=
EXTT0=
EXTT1=
EXTT2=
PLAYORDER=
